<svg width="25" height="24" viewBox="0 0 25 24" fill="none" xmlns="http://www.w3.org/2000/svg">
<path fill-rule="evenodd" clip-rule="evenodd" d="M24.8055 11.9997C24.8055 18.6272 19.442 23.9997 12.8263 23.9997C10.9098 23.9997 9.09858 23.5493 7.49251 22.7479C7.0655 22.5348 6.57773 22.4641 6.11708 22.5875L3.45052 23.3022C2.29301 23.6125 1.23383 22.5515 1.54355 21.392L2.25707 18.7208C2.38024 18.2594 2.30967 17.7707 2.09699 17.343C1.29689 15.7338 0.847015 13.9194 0.847015 12C0.847015 5.37246 6.21052 0 12.8263 0C19.442 0 24.8055 5.37213 24.8055 11.9997ZM8.1051 11.999L9.05222 12.5511L9.04438 12.5514C9.06757 12.5629 9.08979 12.576 9.11135 12.5904C9.37173 12.7661 9.44034 13.1199 9.2649 13.3807C9.08946 13.6416 8.73629 13.7103 8.47591 13.5346L7.55722 12.9936V14.0867C7.55755 14.1521 7.54676 14.2172 7.52487 14.2788C7.42033 14.5753 7.09559 14.7304 6.79959 14.6257C6.56502 14.5429 6.41147 14.3167 6.42061 14.0677V12.9936L5.50192 13.5326C5.32125 13.6393 5.09681 13.638 4.91777 13.529C4.64955 13.3657 4.56395 13.0155 4.72698 12.7468C4.78023 12.6611 4.85472 12.5907 4.94293 12.5419L5.88057 11.9993L4.93346 11.4472C4.91026 11.4358 4.88804 11.4227 4.86648 11.4083C4.6061 11.2325 4.53749 10.8788 4.71293 10.6179C4.88837 10.3571 5.24154 10.2884 5.50192 10.4641L6.42061 11.0051V9.91201C6.42061 9.5975 6.67512 9.34256 6.98908 9.34256C7.30304 9.34256 7.55755 9.5975 7.55755 9.91201V11.0051L8.46872 10.4641C8.65037 10.3558 8.87743 10.3574 9.05744 10.4684C9.32501 10.633 9.40832 10.9838 9.24367 11.2515C9.19041 11.3373 9.11592 11.4076 9.02771 11.4564L8.1051 11.999ZM14.8895 12.5511L13.9423 11.999L14.8649 11.4564C14.9532 11.4076 15.0276 11.3373 15.0809 11.2515C15.2456 10.9838 15.1623 10.633 14.8947 10.4684C14.7147 10.3574 14.4876 10.3558 14.306 10.4641L13.3948 11.0051V9.912C13.3948 9.59749 13.1403 9.34255 12.8263 9.34255C12.5124 9.34255 12.2578 9.59749 12.2578 9.912V11.0051L11.3392 10.4641C11.0788 10.2884 10.7256 10.3571 10.5502 10.6179C10.3747 10.8788 10.4433 11.2325 10.7037 11.4083C10.7253 11.4227 10.7475 11.4358 10.7707 11.4472L11.7178 11.9993L10.7802 12.5419C10.692 12.5907 10.6175 12.6611 10.5642 12.7468C10.4012 13.0155 10.4868 13.3657 10.755 13.529C10.934 13.638 11.1585 13.6393 11.3392 13.5326L12.2578 12.9936V14.0677C12.2487 14.3167 12.4023 14.5429 12.6368 14.6257C12.9328 14.7304 13.2576 14.5753 13.3621 14.2788C13.384 14.2172 13.3948 14.1521 13.3945 14.0866V12.9936L14.3131 13.5345C14.5735 13.7103 14.9267 13.6416 15.1021 13.3807C15.2776 13.1199 15.209 12.7661 14.9486 12.5904C14.927 12.576 14.9048 12.5629 14.8816 12.5514L14.8895 12.5511ZM19.7792 11.999L20.7263 12.5511L20.7185 12.5514C20.7417 12.5629 20.7639 12.576 20.7855 12.5904C21.0458 12.7661 21.1145 13.1199 20.939 13.3807C20.7636 13.6416 20.4104 13.7103 20.15 13.5345L19.2313 12.9936V14.0866C19.2317 14.1521 19.2209 14.2172 19.199 14.2788C19.0944 14.5753 18.7697 14.7304 18.4737 14.6257C18.2391 14.5429 18.0856 14.3167 18.0947 14.0677V12.9936L17.176 13.5326C16.9954 13.6393 16.7709 13.638 16.5919 13.529C16.3237 13.3657 16.2381 13.0155 16.4011 12.7468C16.4543 12.6611 16.5288 12.5907 16.617 12.5419L17.5547 11.9993L16.6076 11.4472C16.5844 11.4358 16.5622 11.4227 16.5406 11.4083C16.2802 11.2325 16.2116 10.8788 16.387 10.6179C16.5625 10.3571 16.9157 10.2884 17.176 10.4641L18.0947 11.0051V9.912C18.0947 9.59749 18.3492 9.34255 18.6632 9.34255C18.9772 9.34255 19.2317 9.59749 19.2317 9.912V11.0051L20.1428 10.4641C20.3245 10.3558 20.5515 10.3574 20.7316 10.4684C20.9991 10.633 21.0824 10.9838 20.9178 11.2515C20.8645 11.3373 20.79 11.4076 20.7018 11.4564L19.7792 11.999Z" fill="#FFBB00"/>
</svg>
