<svg width="532" height="56" viewBox="0 0 532 56" fill="none" xmlns="http://www.w3.org/2000/svg">
<path fill-rule="evenodd" clip-rule="evenodd" d="M56.1136 27.9996C56.1136 43.4641 43.5639 56 28.0842 56C23.6001 56 19.3621 54.9492 15.6042 53.0791C14.6051 52.5819 13.4638 52.417 12.3859 52.7049L6.14667 54.3727C3.43829 55.0966 0.960016 52.6209 1.68469 49.9153L3.35421 43.6825C3.6424 42.6058 3.47728 41.4656 2.97964 40.4676C1.10755 36.7127 0.0549316 32.4791 0.0549316 28.0004C0.0549316 12.5359 12.6046 0 28.0842 0C43.5639 0 56.1136 12.5351 56.1136 27.9996ZM17.0375 27.9981L19.2536 29.2863L19.2353 29.2871C19.2896 29.3138 19.3415 29.3444 19.392 29.378C20.0012 29.7881 20.1618 30.6135 19.7513 31.2222C19.3408 31.8308 18.5144 31.9912 17.9052 31.5811L15.7556 30.3188V32.8693C15.7564 33.0221 15.7311 33.174 15.6799 33.3176C15.4353 34.0095 14.6755 34.3714 13.9829 34.1271C13.434 33.9339 13.0747 33.4062 13.0961 32.8251V30.3188L10.9466 31.5765C10.5238 31.8254 9.99868 31.8224 9.57977 31.5681C8.95218 31.187 8.7519 30.3699 9.13335 29.743C9.25795 29.5429 9.43224 29.3787 9.63864 29.265L11.8325 27.9988L9.61647 26.7106C9.56219 26.6839 9.51021 26.6533 9.45976 26.6197C8.85051 26.2096 8.68998 25.3841 9.10048 24.7755C9.51098 24.1669 10.3373 24.0065 10.9466 24.4166L13.0961 25.6789V23.1284C13.0961 22.3945 13.6916 21.7996 14.4263 21.7996C15.1609 21.7996 15.7564 22.3945 15.7564 23.1284V25.6789L17.8884 24.4166C18.3134 24.1638 18.8447 24.1677 19.2659 24.4265C19.8919 24.8106 20.0868 25.6293 19.7016 26.2539C19.577 26.454 19.4027 26.6182 19.1963 26.732L17.0375 27.9981ZM32.9117 29.2863L30.6956 27.9981L32.8544 26.7319C33.0608 26.6182 33.235 26.454 33.3596 26.2539C33.7449 25.6292 33.55 24.8106 32.9239 24.4265C32.5027 24.1676 31.9714 24.1638 31.5464 24.4166L29.4144 25.6789V23.1283C29.4144 22.3945 28.8189 21.7996 28.0843 21.7996C27.3497 21.7996 26.7542 22.3945 26.7542 23.1283V25.6789L24.6046 24.4166C23.9954 24.0065 23.169 24.1669 22.7586 24.7755C22.3481 25.3841 22.5086 26.2096 23.1178 26.6197C23.1683 26.6533 23.2203 26.6838 23.2745 26.7106L25.4906 27.9988L23.2967 29.2649C23.0903 29.3787 22.916 29.5429 22.7914 29.743C22.41 30.3699 22.6102 31.187 23.2378 31.5681C23.6568 31.8224 24.1819 31.8254 24.6046 31.5765L26.7542 30.3188V32.825C26.7328 33.4062 27.0921 33.9338 27.641 34.127C28.3335 34.3714 29.0934 34.0094 29.338 33.3176C29.3892 33.174 29.4144 33.022 29.4137 32.8693V30.3188L31.5632 31.5811C32.1725 31.9911 32.9988 31.8308 33.4093 31.2221C33.8198 30.6135 33.6593 29.788 33.0501 29.378C32.9996 29.3444 32.9476 29.3138 32.8933 29.2871L32.9117 29.2863ZM44.3529 27.9981L46.5689 29.2863L46.5506 29.2871C46.6049 29.3138 46.6569 29.3444 46.7073 29.378C47.3166 29.788 47.4771 30.6135 47.0666 31.2221C46.6561 31.8308 45.8297 31.9911 45.2205 31.5811L43.0709 30.3188V32.8693C43.0717 33.022 43.0465 33.174 42.9952 33.3176C42.7506 34.0094 41.9908 34.3714 41.2982 34.127C40.7494 33.9338 40.3901 33.4062 40.4115 32.825V30.3188L38.2619 31.5765C37.8392 31.8254 37.314 31.8224 36.8951 31.5681C36.2675 31.187 36.0672 30.3699 36.4487 29.743C36.5733 29.5429 36.7476 29.3787 36.954 29.2649L39.1479 27.9988L36.9318 26.7106C36.8775 26.6838 36.8255 26.6533 36.7751 26.6197C36.1658 26.2096 36.0053 25.3841 36.4158 24.7755C36.8263 24.1669 37.6526 24.0065 38.2619 24.4166L40.4115 25.6789V23.1283C40.4115 22.3945 41.007 21.7996 41.7416 21.7996C42.4762 21.7996 43.0717 22.3945 43.0717 23.1283V25.6789L45.2037 24.4166C45.6287 24.1638 46.16 24.1676 46.5812 24.4265C47.2072 24.8106 47.4022 25.6292 47.0169 26.2539C46.8923 26.454 46.718 26.6182 46.5116 26.7319L44.3529 27.9981Z" fill="#FFBB00"/>
<path d="M97.4437 14.2356V42H90.6806V30.5699H80.1602V42H73.3971V14.2356H80.1602V25.112H90.6806V14.2356H97.4437ZM100.981 30.9259C100.981 28.6583 101.403 26.6676 102.247 24.9538C103.117 23.2399 104.29 21.9216 105.767 20.9987C107.243 20.0759 108.891 19.6145 110.711 19.6145C112.266 19.6145 113.624 19.9309 114.784 20.5637C115.971 21.1965 116.881 22.0271 117.513 23.0554V19.9309H124.276V42H117.513V38.8755C116.854 39.9038 115.931 40.7344 114.745 41.3672C113.585 42 112.227 42.3164 110.671 42.3164C108.878 42.3164 107.243 41.855 105.767 40.9321C104.29 39.9829 103.117 38.6514 102.247 36.9376C101.403 35.1973 100.981 33.1934 100.981 30.9259ZM117.513 30.9654C117.513 29.278 117.039 27.9464 116.09 26.9709C115.167 25.9953 114.033 25.5075 112.688 25.5075C111.343 25.5075 110.197 25.9953 109.247 26.9709C108.324 27.9201 107.863 29.2384 107.863 30.9259C107.863 32.6134 108.324 33.9581 109.247 34.96C110.197 35.9356 111.343 36.4234 112.688 36.4234C114.033 36.4234 115.167 35.9356 116.09 34.96C117.039 33.9845 117.513 32.6529 117.513 30.9654ZM141.469 36.2652V42H138.029C135.576 42 133.665 41.4067 132.294 40.2202C130.923 39.0074 130.237 37.043 130.237 34.3272V25.547H127.548V19.9309H130.237V14.552H137V19.9309H141.43V25.547H137V34.4063C137 35.0655 137.158 35.5401 137.475 35.8301C137.791 36.1202 138.319 36.2652 139.057 36.2652H141.469ZM166.04 30.6095C166.04 31.2423 166.001 31.9015 165.921 32.587H150.615C150.721 33.9581 151.156 35.0128 151.921 35.751C152.712 36.4629 153.674 36.8189 154.808 36.8189C156.495 36.8189 157.669 36.107 158.328 34.6832H165.526C165.157 36.1334 164.484 37.4385 163.509 38.5987C162.56 39.7588 161.36 40.6685 159.91 41.3276C158.46 41.9868 156.838 42.3164 155.045 42.3164C152.883 42.3164 150.958 41.855 149.271 40.9321C147.583 40.0093 146.265 38.691 145.316 36.9771C144.367 35.2633 143.892 33.2594 143.892 30.9654C143.892 28.6715 144.353 26.6676 145.276 24.9538C146.225 23.2399 147.544 21.9216 149.231 20.9987C150.919 20.0759 152.857 19.6145 155.045 19.6145C157.181 19.6145 159.079 20.0627 160.74 20.9592C162.401 21.8557 163.693 23.1345 164.616 24.7956C165.566 26.4567 166.04 28.3947 166.04 30.6095ZM159.119 28.8297C159.119 27.6696 158.723 26.7467 157.932 26.0612C157.141 25.3757 156.153 25.0329 154.966 25.0329C153.832 25.0329 152.87 25.3625 152.079 26.0216C151.314 26.6808 150.84 27.6168 150.655 28.8297H159.119ZM188.035 42.2769C186.005 42.2769 184.186 41.9473 182.577 41.2881C180.969 40.6289 179.677 39.6533 178.701 38.3614C177.752 37.0694 177.251 35.5137 177.198 33.6944H184.396C184.502 34.7227 184.858 35.5137 185.464 36.0674C186.071 36.5948 186.862 36.8585 187.837 36.8585C188.839 36.8585 189.63 36.6343 190.21 36.1861C190.79 35.7115 191.08 35.0655 191.08 34.2481C191.08 33.5626 190.843 32.9957 190.369 32.5475C189.92 32.0992 189.353 31.7301 188.668 31.44C188.009 31.15 187.06 30.8204 185.82 30.4513C184.027 29.8976 182.564 29.3439 181.43 28.7902C180.296 28.2365 179.321 27.4191 178.503 26.338C177.686 25.257 177.277 23.8464 177.277 22.1062C177.277 19.5222 178.213 17.5051 180.085 16.0549C181.958 14.5784 184.396 13.8401 187.402 13.8401C190.461 13.8401 192.926 14.5784 194.798 16.0549C196.67 17.5051 197.672 19.5354 197.804 22.1457H190.487C190.434 21.2492 190.105 20.5505 189.498 20.0495C188.892 19.5222 188.114 19.2585 187.165 19.2585C186.348 19.2585 185.688 19.4826 185.187 19.9309C184.686 20.3528 184.436 20.9724 184.436 21.7898C184.436 22.6862 184.858 23.385 185.702 23.8859C186.545 24.3869 187.864 24.9274 189.657 25.5075C191.45 26.1139 192.9 26.694 194.007 27.2477C195.141 27.8014 196.117 28.6056 196.934 29.6603C197.751 30.715 198.16 32.0729 198.16 33.734C198.16 35.316 197.751 36.753 196.934 38.045C196.143 39.3369 194.983 40.3653 193.453 41.1299C191.924 41.8945 190.118 42.2769 188.035 42.2769ZM209.085 23.0554C209.744 22.0271 210.654 21.1965 211.814 20.5637C212.974 19.9309 214.332 19.6145 215.888 19.6145C217.707 19.6145 219.355 20.0759 220.832 20.9987C222.308 21.9216 223.468 23.2399 224.312 24.9538C225.182 26.6676 225.617 28.6583 225.617 30.9259C225.617 33.1934 225.182 35.1973 224.312 36.9376C223.468 38.6514 222.308 39.9829 220.832 40.9321C219.355 41.855 217.707 42.3164 215.888 42.3164C214.359 42.3164 213.001 42 211.814 41.3672C210.654 40.7344 209.744 39.917 209.085 38.9151V52.5204H202.322V19.9309H209.085V23.0554ZM218.735 30.9259C218.735 29.2384 218.261 27.9201 217.312 26.9709C216.389 25.9953 215.242 25.5075 213.871 25.5075C212.526 25.5075 211.379 25.9953 210.43 26.9709C209.507 27.9464 209.046 29.278 209.046 30.9654C209.046 32.6529 209.507 33.9845 210.43 34.96C211.379 35.9356 212.526 36.4234 213.871 36.4234C215.215 36.4234 216.362 35.9356 217.312 34.96C218.261 33.9581 218.735 32.6134 218.735 30.9259ZM249.969 30.6095C249.969 31.2423 249.929 31.9015 249.85 32.587H234.544C234.65 33.9581 235.085 35.0128 235.849 35.751C236.64 36.4629 237.603 36.8189 238.737 36.8189C240.424 36.8189 241.597 36.107 242.256 34.6832H249.455C249.086 36.1334 248.413 37.4385 247.438 38.5987C246.488 39.7588 245.289 40.6685 243.839 41.3276C242.388 41.9868 240.767 42.3164 238.974 42.3164C236.812 42.3164 234.887 41.855 233.199 40.9321C231.512 40.0093 230.194 38.691 229.244 36.9771C228.295 35.2633 227.821 33.2594 227.821 30.9654C227.821 28.6715 228.282 26.6676 229.205 24.9538C230.154 23.2399 231.472 21.9216 233.16 20.9987C234.847 20.0759 236.785 19.6145 238.974 19.6145C241.11 19.6145 243.008 20.0627 244.669 20.9592C246.33 21.8557 247.622 23.1345 248.545 24.7956C249.494 26.4567 249.969 28.3947 249.969 30.6095ZM243.048 28.8297C243.048 27.6696 242.652 26.7467 241.861 26.0612C241.07 25.3757 240.081 25.0329 238.895 25.0329C237.761 25.0329 236.799 25.3625 236.008 26.0216C235.243 26.6808 234.768 27.6168 234.584 28.8297H243.048ZM274.34 30.6095C274.34 31.2423 274.301 31.9015 274.222 32.587H258.916C259.021 33.9581 259.456 35.0128 260.221 35.751C261.012 36.4629 261.974 36.8189 263.108 36.8189C264.795 36.8189 265.969 36.107 266.628 34.6832H273.826C273.457 36.1334 272.785 37.4385 271.809 38.5987C270.86 39.7588 269.66 40.6685 268.21 41.3276C266.76 41.9868 265.138 42.3164 263.345 42.3164C261.183 42.3164 259.258 41.855 257.571 40.9321C255.883 40.0093 254.565 38.691 253.616 36.9771C252.667 35.2633 252.192 33.2594 252.192 30.9654C252.192 28.6715 252.653 26.6676 253.576 24.9538C254.525 23.2399 255.844 21.9216 257.531 20.9987C259.219 20.0759 261.157 19.6145 263.345 19.6145C265.481 19.6145 267.379 20.0627 269.04 20.9592C270.702 21.8557 271.994 23.1345 272.916 24.7956C273.866 26.4567 274.34 28.3947 274.34 30.6095ZM267.419 28.8297C267.419 27.6696 267.023 26.7467 266.232 26.0612C265.441 25.3757 264.453 25.0329 263.266 25.0329C262.132 25.0329 261.17 25.3625 260.379 26.0216C259.614 26.6808 259.14 27.6168 258.955 28.8297H267.419ZM276.563 30.9654C276.563 28.6715 277.025 26.6676 277.948 24.9538C278.897 23.2399 280.202 21.9216 281.863 20.9987C283.551 20.0759 285.475 19.6145 287.637 19.6145C290.406 19.6145 292.713 20.3396 294.559 21.7898C296.431 23.2399 297.657 25.2834 298.237 27.9201H291.039C290.432 26.2326 289.259 25.3888 287.519 25.3888C286.28 25.3888 285.291 25.8766 284.553 26.8522C283.814 27.8014 283.445 29.1725 283.445 30.9654C283.445 32.7584 283.814 34.1427 284.553 35.1182C285.291 36.0674 286.28 36.542 287.519 36.542C289.259 36.542 290.432 35.6983 291.039 34.0108H298.237C297.657 36.5948 296.431 38.625 294.559 40.1016C292.687 41.5781 290.38 42.3164 287.637 42.3164C285.475 42.3164 283.551 41.855 281.863 40.9321C280.202 40.0093 278.897 38.691 277.948 36.9771C277.025 35.2633 276.563 33.2594 276.563 30.9654ZM315.42 19.6936C317.952 19.6936 319.982 20.5373 321.511 22.2248C323.04 23.8859 323.805 26.1798 323.805 29.1066V42H317.081V30.0162C317.081 28.5397 316.699 27.3927 315.935 26.5754C315.17 25.758 314.142 25.3493 312.85 25.3493C311.558 25.3493 310.529 25.758 309.765 26.5754C309 27.3927 308.618 28.5397 308.618 30.0162V42H301.855V12.7327H308.618V22.8972C309.303 21.9216 310.239 21.1438 311.426 20.5637C312.612 19.9836 313.944 19.6936 315.42 19.6936ZM347.288 14.2356C350.215 14.2356 352.772 14.8157 354.961 15.9758C357.149 17.136 358.836 18.7707 360.023 20.8801C361.236 22.9631 361.842 25.3757 361.842 28.1178C361.842 30.8336 361.236 33.2462 360.023 35.3555C358.836 37.4649 357.136 39.0996 354.921 40.2598C352.733 41.4199 350.188 42 347.288 42H336.886V14.2356H347.288ZM346.853 36.1465C349.41 36.1465 351.401 35.4478 352.825 34.0504C354.249 32.6529 354.961 30.6754 354.961 28.1178C354.961 25.5602 354.249 23.5695 352.825 22.1457C351.401 20.7219 349.41 20.01 346.853 20.01H343.649V36.1465H346.853ZM386.425 30.6095C386.425 31.2423 386.386 31.9015 386.307 32.587H371.001C371.106 33.9581 371.541 35.0128 372.306 35.751C373.097 36.4629 374.059 36.8189 375.193 36.8189C376.881 36.8189 378.054 36.107 378.713 34.6832H385.911C385.542 36.1334 384.87 37.4385 383.894 38.5987C382.945 39.7588 381.745 40.6685 380.295 41.3276C378.845 41.9868 377.223 42.3164 375.43 42.3164C373.268 42.3164 371.343 41.855 369.656 40.9321C367.969 40.0093 366.65 38.691 365.701 36.9771C364.752 35.2633 364.277 33.2594 364.277 30.9654C364.277 28.6715 364.739 26.6676 365.661 24.9538C366.611 23.2399 367.929 21.9216 369.616 20.9987C371.304 20.0759 373.242 19.6145 375.43 19.6145C377.566 19.6145 379.464 20.0627 381.126 20.9592C382.787 21.8557 384.079 23.1345 385.002 24.7956C385.951 26.4567 386.425 28.3947 386.425 30.6095ZM379.504 28.8297C379.504 27.6696 379.109 26.7467 378.318 26.0612C377.527 25.3757 376.538 25.0329 375.351 25.0329C374.217 25.0329 373.255 25.3625 372.464 26.0216C371.699 26.6808 371.225 27.6168 371.04 28.8297H379.504ZM402.293 36.2652V42H398.853C396.4 42 394.489 41.4067 393.118 40.2202C391.747 39.0074 391.061 37.043 391.061 34.3272V25.547H388.372V19.9309H391.061V14.552H397.824V19.9309H402.254V25.547H397.824V34.4063C397.824 35.0655 397.982 35.5401 398.299 35.8301C398.615 36.1202 399.143 36.2652 399.881 36.2652H402.293ZM426.864 30.6095C426.864 31.2423 426.825 31.9015 426.745 32.587H411.439C411.545 33.9581 411.98 35.0128 412.745 35.751C413.536 36.4629 414.498 36.8189 415.632 36.8189C417.319 36.8189 418.493 36.107 419.152 34.6832H426.35C425.981 36.1334 425.308 37.4385 424.333 38.5987C423.384 39.7588 422.184 40.6685 420.734 41.3276C419.284 41.9868 417.662 42.3164 415.869 42.3164C413.707 42.3164 411.782 41.855 410.095 40.9321C408.407 40.0093 407.089 38.691 406.14 36.9771C405.19 35.2633 404.716 33.2594 404.716 30.9654C404.716 28.6715 405.177 26.6676 406.1 24.9538C407.049 23.2399 408.368 21.9216 410.055 20.9987C411.743 20.0759 413.681 19.6145 415.869 19.6145C418.005 19.6145 419.903 20.0627 421.564 20.9592C423.225 21.8557 424.517 23.1345 425.44 24.7956C426.389 26.4567 426.864 28.3947 426.864 30.6095ZM419.943 28.8297C419.943 27.6696 419.547 26.7467 418.756 26.0612C417.965 25.3757 416.976 25.0329 415.79 25.0329C414.656 25.0329 413.694 25.3625 412.903 26.0216C412.138 26.6808 411.664 27.6168 411.479 28.8297H419.943ZM429.087 30.9654C429.087 28.6715 429.549 26.6676 430.472 24.9538C431.421 23.2399 432.726 21.9216 434.387 20.9987C436.074 20.0759 437.999 19.6145 440.161 19.6145C442.93 19.6145 445.237 20.3396 447.083 21.7898C448.955 23.2399 450.181 25.2834 450.761 27.9201H443.563C442.956 26.2326 441.783 25.3888 440.043 25.3888C438.803 25.3888 437.815 25.8766 437.076 26.8522C436.338 27.8014 435.969 29.1725 435.969 30.9654C435.969 32.7584 436.338 34.1427 437.076 35.1182C437.815 36.0674 438.803 36.542 440.043 36.542C441.783 36.542 442.956 35.6983 443.563 34.0108H450.761C450.181 36.5948 448.955 38.625 447.083 40.1016C445.211 41.5781 442.904 42.3164 440.161 42.3164C437.999 42.3164 436.074 41.855 434.387 40.9321C432.726 40.0093 431.421 38.691 430.472 36.9771C429.549 35.2633 429.087 33.2594 429.087 30.9654ZM466.679 36.2652V42H463.238C460.786 42 458.874 41.4067 457.503 40.2202C456.132 39.0074 455.446 37.043 455.446 34.3272V25.547H452.757V19.9309H455.446V14.552H462.209V19.9309H466.639V25.547H462.209V34.4063C462.209 35.0655 462.368 35.5401 462.684 35.8301C463 36.1202 463.528 36.2652 464.266 36.2652H466.679ZM473.847 17.637C472.661 17.637 471.685 17.2942 470.92 16.6087C470.182 15.8967 469.813 15.0266 469.813 13.9983C469.813 12.9437 470.182 12.0735 470.92 11.388C471.685 10.6761 472.661 10.3201 473.847 10.3201C475.007 10.3201 475.956 10.6761 476.695 11.388C477.459 12.0735 477.842 12.9437 477.842 13.9983C477.842 15.0266 477.459 15.8967 476.695 16.6087C475.956 17.2942 475.007 17.637 473.847 17.637ZM477.209 19.9309V42H470.446V19.9309H477.209ZM492.156 42.3164C489.994 42.3164 488.043 41.855 486.302 40.9321C484.589 40.0093 483.231 38.691 482.229 36.9771C481.253 35.2633 480.765 33.2594 480.765 30.9654C480.765 28.6979 481.266 26.7072 482.268 24.9933C483.27 23.2531 484.641 21.9216 486.382 20.9987C488.122 20.0759 490.073 19.6145 492.235 19.6145C494.397 19.6145 496.348 20.0759 498.088 20.9987C499.829 21.9216 501.2 23.2531 502.202 24.9933C503.204 26.7072 503.705 28.6979 503.705 30.9654C503.705 33.233 503.19 35.2369 502.162 36.9771C501.16 38.691 499.776 40.0093 498.009 40.9321C496.269 41.855 494.318 42.3164 492.156 42.3164ZM492.156 36.4629C493.448 36.4629 494.542 35.9883 495.439 35.0391C496.361 34.0899 496.823 32.732 496.823 30.9654C496.823 29.1989 496.375 27.841 495.478 26.8918C494.608 25.9425 493.527 25.4679 492.235 25.4679C490.917 25.4679 489.822 25.9425 488.952 26.8918C488.082 27.8146 487.647 29.1725 487.647 30.9654C487.647 32.732 488.069 34.0899 488.913 35.0391C489.783 35.9883 490.864 36.4629 492.156 36.4629ZM520.74 19.6936C523.324 19.6936 525.38 20.5373 526.91 22.2248C528.465 23.8859 529.243 26.1798 529.243 29.1066V42H522.519V30.0162C522.519 28.5397 522.137 27.3927 521.372 26.5754C520.608 25.758 519.58 25.3493 518.288 25.3493C516.996 25.3493 515.967 25.758 515.203 26.5754C514.438 27.3927 514.056 28.5397 514.056 30.0162V42H507.293V19.9309H514.056V22.8576C514.741 21.882 515.664 21.1174 516.824 20.5637C517.984 19.9836 519.289 19.6936 520.74 19.6936Z" fill="#2D2323"/>
</svg>
